<?xml version="1.0" standalone="no"?>
<svg xmlns:xlink="http://www.w3.org/1999/xlink" id="wave" style="transform:rotate(0deg); transition: 0.3s" viewBox="0 0 1440 490" version="1.1" xmlns="http://www.w3.org/2000/svg"><defs><linearGradient id="sw-gradient-0" x1="0" x2="0" y1="1" y2="0"><stop stop-color="rgba(40, 169, 188, 1)" offset="0%"/><stop stop-color="rgba(40, 169, 188, 1)" offset="100%"/></linearGradient></defs><path style="transform:translate(0, 0px); opacity:1" fill="url(#sw-gradient-0)" d="M0,392L34.3,367.5C68.6,343,137,294,206,285.8C274.3,278,343,310,411,302.2C480,294,549,245,617,196C685.7,147,754,98,823,65.3C891.4,33,960,16,1029,32.7C1097.1,49,1166,98,1234,98C1302.9,98,1371,49,1440,89.8C1508.6,131,1577,261,1646,261.3C1714.3,261,1783,131,1851,122.5C1920,114,1989,229,2057,277.7C2125.7,327,2194,310,2263,277.7C2331.4,245,2400,196,2469,212.3C2537.1,229,2606,310,2674,318.5C2742.9,327,2811,261,2880,212.3C2948.6,163,3017,131,3086,147C3154.3,163,3223,229,3291,212.3C3360,196,3429,98,3497,89.8C3565.7,82,3634,163,3703,187.8C3771.4,212,3840,180,3909,212.3C3977.1,245,4046,343,4114,318.5C4182.9,294,4251,147,4320,122.5C4388.6,98,4457,196,4526,204.2C4594.3,212,4663,131,4731,81.7C4800,33,4869,16,4903,8.2L4937.1,0L4937.1,490L4902.9,490C4868.6,490,4800,490,4731,490C4662.9,490,4594,490,4526,490C4457.1,490,4389,490,4320,490C4251.4,490,4183,490,4114,490C4045.7,490,3977,490,3909,490C3840,490,3771,490,3703,490C3634.3,490,3566,490,3497,490C3428.6,490,3360,490,3291,490C3222.9,490,3154,490,3086,490C3017.1,490,2949,490,2880,490C2811.4,490,2743,490,2674,490C2605.7,490,2537,490,2469,490C2400,490,2331,490,2263,490C2194.3,490,2126,490,2057,490C1988.6,490,1920,490,1851,490C1782.9,490,1714,490,1646,490C1577.1,490,1509,490,1440,490C1371.4,490,1303,490,1234,490C1165.7,490,1097,490,1029,490C960,490,891,490,823,490C754.3,490,686,490,617,490C548.6,490,480,490,411,490C342.9,490,274,490,206,490C137.1,490,69,490,34,490L0,490Z"/></svg>